<svg width="24" height="24" viewBox="0 0 24 24" fill="none" xmlns="http://www.w3.org/2000/svg">
<g clip-path="url(#clip0_4_540)">
<path d="M15 8.25C14.5858 8.25 14.25 8.58579 14.25 9C14.25 9.41421 14.5858 9.75 15 9.75V8.25ZM24 9.75C24.4142 9.75 24.75 9.41421 24.75 9C24.75 8.58579 24.4142 8.25 24 8.25V9.75ZM15 14.25C14.5858 14.25 14.25 14.5858 14.25 15C14.25 15.4142 14.5858 15.75 15 15.75V14.25ZM21 15.75C21.4142 15.75 21.75 15.4142 21.75 15C21.75 14.5858 21.4142 14.25 21 14.25V15.75ZM15 20.25C14.5858 20.25 14.25 20.5858 14.25 21C14.25 21.4142 14.5858 21.75 15 21.75V20.25ZM18 21.75C18.4142 21.75 18.75 21.4142 18.75 21C18.75 20.5858 18.4142 20.25 18 20.25V21.75ZM6.56056 18.1267C6.28537 17.8171 5.81131 17.7893 5.50173 18.0644C5.19214 18.3396 5.16425 18.8137 5.43944 19.1233L6.56056 18.1267ZM7.50518 20.3183L6.94462 20.8166H6.94462L7.50518 20.3183ZM10.4948 20.3183L11.0554 20.8166L10.4948 20.3183ZM12.5606 19.1233C12.8357 18.8137 12.8079 18.3396 12.4983 18.0644C12.1887 17.7893 11.7146 17.8171 11.4394 18.1267L12.5606 19.1233ZM8.25 21C8.25 21.4142 8.58579 21.75 9 21.75C9.41421 21.75 9.75 21.4142 9.75 21H8.25ZM9.75 9C9.75 8.58579 9.41421 8.25 9 8.25C8.58579 8.25 8.25 8.58579 8.25 9H9.75ZM15 9.75H24V8.25H15V9.75ZM15 15.75H21V14.25H15V15.75ZM15 21.75H18V20.25H15V21.75ZM5.43944 19.1233L6.94462 20.8166L8.06574 19.8201L6.56056 18.1267L5.43944 19.1233ZM11.0554 20.8166L12.5606 19.1233L11.4394 18.1267L9.93426 19.8201L11.0554 20.8166ZM6.94462 20.8166C8.03855 22.0473 9.96145 22.0473 11.0554 20.8166L9.93426 19.8201C9.43702 20.3794 8.56298 20.3794 8.06574 19.8201L6.94462 20.8166ZM9.75 21V9H8.25V21H9.75Z" fill="#F2F2F2"/>
</g>
<defs>
<clipPath id="clip0_4_540">
<rect width="24" height="24" fill="white"/>
</clipPath>
</defs>
</svg>
