<svg width="24" height="23" viewBox="0 0 24 23" fill="none" xmlns="http://www.w3.org/2000/svg">
    <path
        d="M18.2376 20.5291L18.768 19.9988L18.768 19.9988L18.2376 20.5291ZM20.9137 17.853L21.4441 17.3227L21.4441 17.3227L20.9137 17.853ZM19.6024 15.4811C19.3095 15.1882 18.8347 15.1882 18.5418 15.4811C18.2489 15.774 18.2489 16.2489 18.5418 16.5417L19.6024 15.4811ZM16.9264 18.1572C16.6335 17.8643 16.1586 17.8643 15.8657 18.1572C15.5728 18.4501 15.5728 18.9249 15.8657 19.2178L16.9264 18.1572ZM3.05127 10.0625C3.05127 5.97788 6.3625 2.66666 10.4471 2.66666V1.16666C5.53407 1.16666 1.55127 5.14946 1.55127 10.0625H3.05127ZM10.4471 2.66666C14.5317 2.66666 17.8429 5.97788 17.8429 10.0625H19.3429C19.3429 5.14946 15.3601 1.16666 10.4471 1.16666V2.66666ZM17.8429 10.0625C17.8429 14.1471 14.5317 17.4583 10.4471 17.4583V18.9583C15.3601 18.9583 19.3429 14.9755 19.3429 10.0625H17.8429ZM10.4471 17.4583C6.3625 17.4583 3.05127 14.1471 3.05127 10.0625H1.55127C1.55127 14.9755 5.53407 18.9583 10.4471 18.9583V17.4583ZM20.3834 19.9988C19.9373 20.4448 19.2141 20.4448 18.768 19.9988L17.7073 21.0594C18.7392 22.0913 20.4122 22.0913 21.4441 21.0594L20.3834 19.9988ZM20.3834 18.3833C20.8295 18.8294 20.8295 19.5527 20.3834 19.9988L21.4441 21.0594C22.4759 20.0275 22.4759 18.3546 21.4441 17.3227L20.3834 18.3833ZM18.5418 16.5417L20.3834 18.3833L21.4441 17.3227L19.6024 15.4811L18.5418 16.5417ZM18.768 19.9988L16.9264 18.1572L15.8657 19.2178L17.7073 21.0594L18.768 19.9988Z"
        fill="#28303F" />
</svg>