<svg width="120" height="120" viewBox="0 0 120 120" fill="none" xmlns="http://www.w3.org/2000/svg">
<g opacity="0.1">
<path d="M74.2857 60C74.2857 67.8898 67.8898 74.2857 60 74.2857C52.1102 74.2857 45.7143 67.8898 45.7143 60C45.7143 52.1102 52.1102 45.7143 60 45.7143C67.8898 45.7143 74.2857 52.1102 74.2857 60Z" fill="white"/>
<path fill-rule="evenodd" clip-rule="evenodd" d="M60 120C90.2269 120 115.233 97.6482 119.392 68.5714H84.2511C80.7211 78.5588 71.1962 85.7143 60 85.7143C48.8038 85.7143 39.2789 78.5588 35.7489 68.5714H0.607619C4.76673 97.6482 29.7731 120 60 120ZM35.7489 51.4286H0.607619C4.76673 22.3518 29.7731 0 60 0C90.2269 0 115.233 22.3518 119.392 51.4286H84.2511C80.7211 41.4412 71.1962 34.2857 60 34.2857C48.8038 34.2857 39.2789 41.4412 35.7489 51.4286ZM74.2857 60C74.2857 67.8898 67.8898 74.2857 60 74.2857C52.1102 74.2857 45.7143 67.8898 45.7143 60C45.7143 52.1102 52.1102 45.7143 60 45.7143C67.8898 45.7143 74.2857 52.1102 74.2857 60Z" fill="white"/>
</g>
</svg>
