<svg width="228" height="22" viewBox="0 0 228 22" fill="none" xmlns="http://www.w3.org/2000/svg">
<path d="M2 21.5L20.5 0.5H207.5L226.5 22L2 21.5Z" fill="#BD1808" stroke="#BD1808"/>
<path d="M72.6111 6.696V15H71.5191V8.808L68.7591 15H67.9911L65.2191 8.796V15H64.1271V6.696H65.3031L68.3751 13.56L71.4471 6.696H72.6111ZM74.0551 11.688C74.0551 11.016 74.1911 10.428 74.4631 9.924C74.7351 9.412 75.1071 9.016 75.5791 8.736C76.0591 8.456 76.5911 8.316 77.1751 8.316C77.7511 8.316 78.2511 8.44 78.6751 8.688C79.0991 8.936 79.4151 9.248 79.6231 9.624V8.424H80.7271V15H79.6231V13.776C79.4071 14.16 79.0831 14.48 78.6511 14.736C78.2271 14.984 77.7311 15.108 77.1631 15.108C76.5791 15.108 76.0511 14.964 75.5791 14.676C75.1071 14.388 74.7351 13.984 74.4631 13.464C74.1911 12.944 74.0551 12.352 74.0551 11.688ZM79.6231 11.7C79.6231 11.204 79.5231 10.772 79.3231 10.404C79.1231 10.036 78.8511 9.756 78.5071 9.564C78.1711 9.364 77.7991 9.264 77.3911 9.264C76.9831 9.264 76.6111 9.36 76.2751 9.552C75.9391 9.744 75.6711 10.024 75.4711 10.392C75.2711 10.76 75.1711 11.192 75.1711 11.688C75.1711 12.192 75.2711 12.632 75.4711 13.008C75.6711 13.376 75.9391 13.66 76.2751 13.86C76.6111 14.052 76.9831 14.148 77.3911 14.148C77.7991 14.148 78.1711 14.052 78.5071 13.86C78.8511 13.66 79.1231 13.376 79.3231 13.008C79.5231 12.632 79.6231 12.196 79.6231 11.7ZM82.1644 11.688C82.1644 11.016 82.3004 10.428 82.5724 9.924C82.8444 9.412 83.2164 9.016 83.6884 8.736C84.1684 8.456 84.7044 8.316 85.2964 8.316C85.8084 8.316 86.2844 8.436 86.7244 8.676C87.1644 8.908 87.5004 9.216 87.7324 9.6V6.12H88.8364V15H87.7324V13.764C87.5164 14.156 87.1964 14.48 86.7724 14.736C86.3484 14.984 85.8524 15.108 85.2844 15.108C84.7004 15.108 84.1684 14.964 83.6884 14.676C83.2164 14.388 82.8444 13.984 82.5724 13.464C82.3004 12.944 82.1644 12.352 82.1644 11.688ZM87.7324 11.7C87.7324 11.204 87.6324 10.772 87.4324 10.404C87.2324 10.036 86.9604 9.756 86.6164 9.564C86.2804 9.364 85.9084 9.264 85.5004 9.264C85.0924 9.264 84.7204 9.36 84.3844 9.552C84.0484 9.744 83.7804 10.024 83.5804 10.392C83.3804 10.76 83.2804 11.192 83.2804 11.688C83.2804 12.192 83.3804 12.632 83.5804 13.008C83.7804 13.376 84.0484 13.66 84.3844 13.86C84.7204 14.052 85.0924 14.148 85.5004 14.148C85.9084 14.148 86.2804 14.052 86.6164 13.86C86.9604 13.66 87.2324 13.376 87.4324 13.008C87.6324 12.632 87.7324 12.196 87.7324 11.7ZM96.6818 11.46C96.6818 11.668 96.6698 11.888 96.6458 12.12H91.3898C91.4298 12.768 91.6498 13.276 92.0498 13.644C92.4578 14.004 92.9498 14.184 93.5258 14.184C93.9978 14.184 94.3898 14.076 94.7018 13.86C95.0218 13.636 95.2458 13.34 95.3738 12.972H96.5498C96.3738 13.604 96.0218 14.12 95.4938 14.52C94.9658 14.912 94.3098 15.108 93.5258 15.108C92.9018 15.108 92.3418 14.968 91.8458 14.688C91.3578 14.408 90.9738 14.012 90.6938 13.5C90.4138 12.98 90.2738 12.38 90.2738 11.7C90.2738 11.02 90.4098 10.424 90.6818 9.912C90.9538 9.4 91.3338 9.008 91.8218 8.736C92.3178 8.456 92.8858 8.316 93.5258 8.316C94.1498 8.316 94.7018 8.452 95.1818 8.724C95.6618 8.996 96.0298 9.372 96.2858 9.852C96.5498 10.324 96.6818 10.86 96.6818 11.46ZM95.5538 11.232C95.5538 10.816 95.4618 10.46 95.2778 10.164C95.0938 9.86 94.8418 9.632 94.5218 9.48C94.2098 9.32 93.8618 9.24 93.4778 9.24C92.9258 9.24 92.4538 9.416 92.0618 9.768C91.6778 10.12 91.4578 10.608 91.4018 11.232H95.5538ZM102.414 9.648C102.638 9.256 102.966 8.936 103.398 8.688C103.83 8.44 104.322 8.316 104.874 8.316C105.466 8.316 105.998 8.456 106.47 8.736C106.942 9.016 107.314 9.412 107.586 9.924C107.858 10.428 107.994 11.016 107.994 11.688C107.994 12.352 107.858 12.944 107.586 13.464C107.314 13.984 106.938 14.388 106.458 14.676C105.986 14.964 105.458 15.108 104.874 15.108C104.306 15.108 103.806 14.984 103.374 14.736C102.95 14.488 102.63 14.172 102.414 13.788V15H101.322V6.12H102.414V9.648ZM106.878 11.688C106.878 11.192 106.778 10.76 106.578 10.392C106.378 10.024 106.106 9.744 105.762 9.552C105.426 9.36 105.054 9.264 104.646 9.264C104.246 9.264 103.874 9.364 103.53 9.564C103.194 9.756 102.922 10.04 102.714 10.416C102.514 10.784 102.414 11.212 102.414 11.7C102.414 12.196 102.514 12.632 102.714 13.008C102.922 13.376 103.194 13.66 103.53 13.86C103.874 14.052 104.246 14.148 104.646 14.148C105.054 14.148 105.426 14.052 105.762 13.86C106.106 13.66 106.378 13.376 106.578 13.008C106.778 12.632 106.878 12.192 106.878 11.688ZM115.096 8.424L111.136 18.096H110.008L111.304 14.928L108.652 8.424H109.864L111.928 13.752L113.968 8.424H115.096ZM122.105 8.316C122.673 8.316 123.169 8.44 123.593 8.688C124.025 8.936 124.345 9.248 124.553 9.624V8.424H125.657V15.144C125.657 15.744 125.529 16.276 125.273 16.74C125.017 17.212 124.649 17.58 124.169 17.844C123.697 18.108 123.145 18.24 122.513 18.24C121.649 18.24 120.929 18.036 120.353 17.628C119.777 17.22 119.437 16.664 119.333 15.96H120.413C120.533 16.36 120.781 16.68 121.157 16.92C121.533 17.168 121.985 17.292 122.513 17.292C123.113 17.292 123.601 17.104 123.977 16.728C124.361 16.352 124.553 15.824 124.553 15.144V13.764C124.337 14.148 124.017 14.468 123.593 14.724C123.169 14.98 122.673 15.108 122.105 15.108C121.521 15.108 120.989 14.964 120.509 14.676C120.037 14.388 119.665 13.984 119.393 13.464C119.121 12.944 118.985 12.352 118.985 11.688C118.985 11.016 119.121 10.428 119.393 9.924C119.665 9.412 120.037 9.016 120.509 8.736C120.989 8.456 121.521 8.316 122.105 8.316ZM124.553 11.7C124.553 11.204 124.453 10.772 124.253 10.404C124.053 10.036 123.781 9.756 123.437 9.564C123.101 9.364 122.729 9.264 122.321 9.264C121.913 9.264 121.541 9.36 121.205 9.552C120.869 9.744 120.601 10.024 120.401 10.392C120.201 10.76 120.101 11.192 120.101 11.688C120.101 12.192 120.201 12.632 120.401 13.008C120.601 13.376 120.869 13.66 121.205 13.86C121.541 14.052 121.913 14.148 122.321 14.148C122.729 14.148 123.101 14.052 123.437 13.86C123.781 13.66 124.053 13.376 124.253 13.008C124.453 12.632 124.553 12.196 124.553 11.7ZM128.594 9.492C128.786 9.116 129.058 8.824 129.41 8.616C129.77 8.408 130.206 8.304 130.718 8.304V9.432H130.43C129.206 9.432 128.594 10.096 128.594 11.424V15H127.502V8.424H128.594V9.492ZM134.847 15.108C134.231 15.108 133.671 14.968 133.167 14.688C132.671 14.408 132.279 14.012 131.991 13.5C131.711 12.98 131.571 12.38 131.571 11.7C131.571 11.028 131.715 10.436 132.003 9.924C132.299 9.404 132.699 9.008 133.203 8.736C133.707 8.456 134.271 8.316 134.895 8.316C135.519 8.316 136.083 8.456 136.587 8.736C137.091 9.008 137.487 9.4 137.775 9.912C138.071 10.424 138.219 11.02 138.219 11.7C138.219 12.38 138.067 12.98 137.763 13.5C137.467 14.012 137.063 14.408 136.551 14.688C136.039 14.968 135.471 15.108 134.847 15.108ZM134.847 14.148C135.239 14.148 135.607 14.056 135.951 13.872C136.295 13.688 136.571 13.412 136.779 13.044C136.995 12.676 137.103 12.228 137.103 11.7C137.103 11.172 136.999 10.724 136.791 10.356C136.583 9.988 136.311 9.716 135.975 9.54C135.639 9.356 135.275 9.264 134.883 9.264C134.483 9.264 134.115 9.356 133.779 9.54C133.451 9.716 133.187 9.988 132.987 10.356C132.787 10.724 132.687 11.172 132.687 11.7C132.687 12.236 132.783 12.688 132.975 13.056C133.175 13.424 133.439 13.7 133.767 13.884C134.095 14.06 134.455 14.148 134.847 14.148ZM145.486 8.424V15H144.394V14.028C144.186 14.364 143.894 14.628 143.518 14.82C143.15 15.004 142.742 15.096 142.294 15.096C141.782 15.096 141.322 14.992 140.914 14.784C140.506 14.568 140.182 14.248 139.942 13.824C139.71 13.4 139.594 12.884 139.594 12.276V8.424H140.674V12.132C140.674 12.78 140.838 13.28 141.166 13.632C141.494 13.976 141.942 14.148 142.51 14.148C143.094 14.148 143.554 13.968 143.89 13.608C144.226 13.248 144.394 12.724 144.394 12.036V8.424H145.486ZM148.422 9.636C148.638 9.26 148.958 8.948 149.382 8.7C149.814 8.444 150.314 8.316 150.882 8.316C151.466 8.316 151.994 8.456 152.466 8.736C152.946 9.016 153.322 9.412 153.594 9.924C153.866 10.428 154.002 11.016 154.002 11.688C154.002 12.352 153.866 12.944 153.594 13.464C153.322 13.984 152.946 14.388 152.466 14.676C151.994 14.964 151.466 15.108 150.882 15.108C150.322 15.108 149.826 14.984 149.394 14.736C148.97 14.48 148.646 14.164 148.422 13.788V18.12H147.33V8.424H148.422V9.636ZM152.886 11.688C152.886 11.192 152.786 10.76 152.586 10.392C152.386 10.024 152.114 9.744 151.77 9.552C151.434 9.36 151.062 9.264 150.654 9.264C150.254 9.264 149.882 9.364 149.538 9.564C149.202 9.756 148.93 10.04 148.722 10.416C148.522 10.784 148.422 11.212 148.422 11.7C148.422 12.196 148.522 12.632 148.722 13.008C148.93 13.376 149.202 13.66 149.538 13.86C149.882 14.052 150.254 14.148 150.654 14.148C151.062 14.148 151.434 14.052 151.77 13.86C152.114 13.66 152.386 13.376 152.586 13.008C152.786 12.632 152.886 12.192 152.886 11.688ZM158.195 13.068V12.24L162.407 6.408H163.715V12.12H164.915V13.068H163.715V15H162.635V13.068H158.195ZM162.683 7.548L159.455 12.12H162.683V7.548ZM166.006 10.572C166.006 9.196 166.23 8.124 166.678 7.356C167.126 6.58 167.91 6.192 169.03 6.192C170.142 6.192 170.922 6.58 171.37 7.356C171.818 8.124 172.042 9.196 172.042 10.572C172.042 11.972 171.818 13.06 171.37 13.836C170.922 14.612 170.142 15 169.03 15C167.91 15 167.126 14.612 166.678 13.836C166.23 13.06 166.006 11.972 166.006 10.572ZM170.962 10.572C170.962 9.876 170.914 9.288 170.818 8.808C170.73 8.32 170.542 7.928 170.254 7.632C169.974 7.336 169.566 7.188 169.03 7.188C168.486 7.188 168.07 7.336 167.782 7.632C167.502 7.928 167.314 8.32 167.218 8.808C167.13 9.288 167.086 9.876 167.086 10.572C167.086 11.292 167.13 11.896 167.218 12.384C167.314 12.872 167.502 13.264 167.782 13.56C168.07 13.856 168.486 14.004 169.03 14.004C169.566 14.004 169.974 13.856 170.254 13.56C170.542 13.264 170.73 12.872 170.818 12.384C170.914 11.896 170.962 11.292 170.962 10.572Z" fill="#F8F8F8"/>
</svg>
