<svg width="582" height="43" viewBox="0 0 582 43" fill="none" xmlns="http://www.w3.org/2000/svg">
<path d="M0.5 0L56.5 42.5H525L581.5 0H0.5Z" fill="#BD1808"/>
<path d="M209.712 13.49V15.164H204.402V18.854H208.542V20.528H204.402V26H202.35V13.49H209.712ZM212.658 14.768C212.286 14.768 211.974 14.642 211.722 14.39C211.47 14.138 211.344 13.826 211.344 13.454C211.344 13.082 211.47 12.77 211.722 12.518C211.974 12.266 212.286 12.14 212.658 12.14C213.018 12.14 213.324 12.266 213.576 12.518C213.828 12.77 213.954 13.082 213.954 13.454C213.954 13.826 213.828 14.138 213.576 14.39C213.324 14.642 213.018 14.768 212.658 14.768ZM213.666 16.082V26H211.614V16.082H213.666ZM218.412 12.68V26H216.36V12.68H218.412ZM223.5 17.756V23.246C223.5 23.618 223.584 23.888 223.752 24.056C223.932 24.212 224.232 24.29 224.652 24.29H225.912V26H224.292C223.368 26 222.66 25.784 222.168 25.352C221.676 24.92 221.43 24.218 221.43 23.246V17.756H220.26V16.082H221.43V13.616H223.5V16.082H225.912V17.756H223.5ZM236.893 20.798C236.893 21.17 236.869 21.506 236.821 21.806H229.243C229.303 22.598 229.597 23.234 230.125 23.714C230.653 24.194 231.301 24.434 232.069 24.434C233.173 24.434 233.953 23.972 234.409 23.048H236.623C236.323 23.96 235.777 24.71 234.985 25.298C234.205 25.874 233.233 26.162 232.069 26.162C231.121 26.162 230.269 25.952 229.513 25.532C228.769 25.1 228.181 24.5 227.749 23.732C227.329 22.952 227.119 22.052 227.119 21.032C227.119 20.012 227.323 19.118 227.731 18.35C228.151 17.57 228.733 16.97 229.477 16.55C230.233 16.13 231.097 15.92 232.069 15.92C233.005 15.92 233.839 16.124 234.571 16.532C235.303 16.94 235.873 17.516 236.281 18.26C236.689 18.992 236.893 19.838 236.893 20.798ZM234.751 20.15C234.739 19.394 234.469 18.788 233.941 18.332C233.413 17.876 232.759 17.648 231.979 17.648C231.271 17.648 230.665 17.876 230.161 18.332C229.657 18.776 229.357 19.382 229.261 20.15H234.751ZM240.965 17.522C241.265 17.018 241.661 16.628 242.153 16.352C242.657 16.064 243.251 15.92 243.935 15.92V18.044H243.413C242.609 18.044 241.997 18.248 241.577 18.656C241.169 19.064 240.965 19.772 240.965 20.78V26H238.913V16.082H240.965V17.522ZM259.424 16.082L253.34 30.662H251.216L253.232 25.838L249.326 16.082H251.612L254.402 23.642L257.3 16.082H259.424ZM265.275 26.162C264.339 26.162 263.493 25.952 262.737 25.532C261.981 25.1 261.387 24.5 260.955 23.732C260.523 22.952 260.307 22.052 260.307 21.032C260.307 20.024 260.529 19.13 260.973 18.35C261.417 17.57 262.023 16.97 262.791 16.55C263.559 16.13 264.417 15.92 265.365 15.92C266.313 15.92 267.171 16.13 267.939 16.55C268.707 16.97 269.313 17.57 269.757 18.35C270.201 19.13 270.423 20.024 270.423 21.032C270.423 22.04 270.195 22.934 269.739 23.714C269.283 24.494 268.659 25.1 267.867 25.532C267.087 25.952 266.223 26.162 265.275 26.162ZM265.275 24.38C265.803 24.38 266.295 24.254 266.751 24.002C267.219 23.75 267.597 23.372 267.885 22.868C268.173 22.364 268.317 21.752 268.317 21.032C268.317 20.312 268.179 19.706 267.903 19.214C267.627 18.71 267.261 18.332 266.805 18.08C266.349 17.828 265.857 17.702 265.329 17.702C264.801 17.702 264.309 17.828 263.853 18.08C263.409 18.332 263.055 18.71 262.791 19.214C262.527 19.706 262.395 20.312 262.395 21.032C262.395 22.1 262.665 22.928 263.205 23.516C263.757 24.092 264.447 24.38 265.275 24.38ZM281.434 16.082V26H279.382V24.83C279.058 25.238 278.632 25.562 278.104 25.802C277.588 26.03 277.036 26.144 276.448 26.144C275.668 26.144 274.966 25.982 274.342 25.658C273.73 25.334 273.244 24.854 272.884 24.218C272.536 23.582 272.362 22.814 272.362 21.914V16.082H274.396V21.608C274.396 22.496 274.618 23.18 275.062 23.66C275.506 24.128 276.112 24.362 276.88 24.362C277.648 24.362 278.254 24.128 278.698 23.66C279.154 23.18 279.382 22.496 279.382 21.608V16.082H281.434ZM286.193 17.522C286.493 17.018 286.889 16.628 287.381 16.352C287.885 16.064 288.479 15.92 289.163 15.92V18.044H288.641C287.837 18.044 287.225 18.248 286.805 18.656C286.397 19.064 286.193 19.772 286.193 20.78V26H284.141V16.082H286.193V17.522ZM297.777 17.54C298.125 17.084 298.599 16.7 299.199 16.388C299.799 16.076 300.477 15.92 301.233 15.92C302.097 15.92 302.883 16.136 303.591 16.568C304.311 16.988 304.875 17.582 305.283 18.35C305.691 19.118 305.895 20 305.895 20.996C305.895 21.992 305.691 22.886 305.283 23.678C304.875 24.458 304.311 25.07 303.591 25.514C302.883 25.946 302.097 26.162 301.233 26.162C300.477 26.162 299.805 26.012 299.217 25.712C298.629 25.4 298.149 25.016 297.777 24.56V30.716H295.725V16.082H297.777V17.54ZM303.807 20.996C303.807 20.312 303.663 19.724 303.375 19.232C303.099 18.728 302.727 18.35 302.259 18.098C301.803 17.834 301.311 17.702 300.783 17.702C300.267 17.702 299.775 17.834 299.307 18.098C298.851 18.362 298.479 18.746 298.191 19.25C297.915 19.754 297.777 20.348 297.777 21.032C297.777 21.716 297.915 22.316 298.191 22.832C298.479 23.336 298.851 23.72 299.307 23.984C299.775 24.248 300.267 24.38 300.783 24.38C301.311 24.38 301.803 24.248 302.259 23.984C302.727 23.708 303.099 23.312 303.375 22.796C303.663 22.28 303.807 21.68 303.807 20.996ZM312.226 26.162C311.29 26.162 310.444 25.952 309.688 25.532C308.932 25.1 308.338 24.5 307.906 23.732C307.474 22.952 307.258 22.052 307.258 21.032C307.258 20.024 307.48 19.13 307.924 18.35C308.368 17.57 308.974 16.97 309.742 16.55C310.51 16.13 311.368 15.92 312.316 15.92C313.264 15.92 314.122 16.13 314.89 16.55C315.658 16.97 316.264 17.57 316.708 18.35C317.152 19.13 317.374 20.024 317.374 21.032C317.374 22.04 317.146 22.934 316.69 23.714C316.234 24.494 315.61 25.1 314.818 25.532C314.038 25.952 313.174 26.162 312.226 26.162ZM312.226 24.38C312.754 24.38 313.246 24.254 313.702 24.002C314.17 23.75 314.548 23.372 314.836 22.868C315.124 22.364 315.268 21.752 315.268 21.032C315.268 20.312 315.13 19.706 314.854 19.214C314.578 18.71 314.212 18.332 313.756 18.08C313.3 17.828 312.808 17.702 312.28 17.702C311.752 17.702 311.26 17.828 310.804 18.08C310.36 18.332 310.006 18.71 309.742 19.214C309.478 19.706 309.346 20.312 309.346 21.032C309.346 22.1 309.616 22.928 310.156 23.516C310.708 24.092 311.398 24.38 312.226 24.38ZM323.327 21.05L327.899 26H325.127L321.455 21.734V26H319.403V12.68H321.455V20.42L325.055 16.082H327.899L323.327 21.05ZM338.46 20.798C338.46 21.17 338.436 21.506 338.388 21.806H330.81C330.87 22.598 331.164 23.234 331.692 23.714C332.22 24.194 332.868 24.434 333.636 24.434C334.74 24.434 335.52 23.972 335.976 23.048H338.19C337.89 23.96 337.344 24.71 336.552 25.298C335.772 25.874 334.8 26.162 333.636 26.162C332.688 26.162 331.836 25.952 331.08 25.532C330.336 25.1 329.748 24.5 329.316 23.732C328.896 22.952 328.686 22.052 328.686 21.032C328.686 20.012 328.89 19.118 329.298 18.35C329.718 17.57 330.3 16.97 331.044 16.55C331.8 16.13 332.664 15.92 333.636 15.92C334.572 15.92 335.406 16.124 336.138 16.532C336.87 16.94 337.44 17.516 337.848 18.26C338.256 18.992 338.46 19.838 338.46 20.798ZM336.318 20.15C336.306 19.394 336.036 18.788 335.508 18.332C334.98 17.876 334.326 17.648 333.546 17.648C332.838 17.648 332.232 17.876 331.728 18.332C331.224 18.776 330.924 19.382 330.828 20.15H336.318ZM352.485 15.92C353.265 15.92 353.961 16.082 354.573 16.406C355.197 16.73 355.683 17.21 356.031 17.846C356.391 18.482 356.571 19.25 356.571 20.15V26H354.537V20.456C354.537 19.568 354.315 18.89 353.871 18.422C353.427 17.942 352.821 17.702 352.053 17.702C351.285 17.702 350.673 17.942 350.217 18.422C349.773 18.89 349.551 19.568 349.551 20.456V26H347.517V20.456C347.517 19.568 347.295 18.89 346.851 18.422C346.407 17.942 345.801 17.702 345.033 17.702C344.265 17.702 343.653 17.942 343.197 18.422C342.753 18.89 342.531 19.568 342.531 20.456V26H340.479V16.082H342.531V17.216C342.867 16.808 343.293 16.49 343.809 16.262C344.325 16.034 344.877 15.92 345.465 15.92C346.257 15.92 346.965 16.088 347.589 16.424C348.213 16.76 348.693 17.246 349.029 17.882C349.329 17.282 349.797 16.808 350.433 16.46C351.069 16.1 351.753 15.92 352.485 15.92ZM363.484 26.162C362.548 26.162 361.702 25.952 360.946 25.532C360.19 25.1 359.596 24.5 359.164 23.732C358.732 22.952 358.516 22.052 358.516 21.032C358.516 20.024 358.738 19.13 359.182 18.35C359.626 17.57 360.232 16.97 361 16.55C361.768 16.13 362.626 15.92 363.574 15.92C364.522 15.92 365.38 16.13 366.148 16.55C366.916 16.97 367.522 17.57 367.966 18.35C368.41 19.13 368.632 20.024 368.632 21.032C368.632 22.04 368.404 22.934 367.948 23.714C367.492 24.494 366.868 25.1 366.076 25.532C365.296 25.952 364.432 26.162 363.484 26.162ZM363.484 24.38C364.012 24.38 364.504 24.254 364.96 24.002C365.428 23.75 365.806 23.372 366.094 22.868C366.382 22.364 366.526 21.752 366.526 21.032C366.526 20.312 366.388 19.706 366.112 19.214C365.836 18.71 365.47 18.332 365.014 18.08C364.558 17.828 364.066 17.702 363.538 17.702C363.01 17.702 362.518 17.828 362.062 18.08C361.618 18.332 361.264 18.71 361 19.214C360.736 19.706 360.604 20.312 360.604 21.032C360.604 22.1 360.874 22.928 361.414 23.516C361.966 24.092 362.656 24.38 363.484 24.38ZM375.665 15.92C376.445 15.92 377.141 16.082 377.753 16.406C378.377 16.73 378.863 17.21 379.211 17.846C379.559 18.482 379.733 19.25 379.733 20.15V26H377.699V20.456C377.699 19.568 377.477 18.89 377.033 18.422C376.589 17.942 375.983 17.702 375.215 17.702C374.447 17.702 373.835 17.942 373.379 18.422C372.935 18.89 372.713 19.568 372.713 20.456V26H370.661V16.082H372.713V17.216C373.049 16.808 373.475 16.49 373.991 16.262C374.519 16.034 375.077 15.92 375.665 15.92Z" fill="#F8F8F8"/>
<path d="M164.239 12.8113C166.524 15.725 170.743 21.125 170.743 21.125V27.875C170.743 28.4938 171.252 29 171.875 29H174.137C174.759 29 175.268 28.4938 175.268 27.875V21.125C175.268 21.125 179.476 15.725 181.761 12.8113C182.338 12.0688 181.806 11 180.867 11H165.133C164.194 11 163.662 12.0688 164.239 12.8113Z" fill="#F8F8F8"/>
</svg>
