<svg width="241" height="22" viewBox="0 0 241 22" fill="none" xmlns="http://www.w3.org/2000/svg">
<path d="M1.5 2L25 21H215.5L239 2H1.5Z" fill="#BD1808" stroke="#BD1808"/>
<path d="M82.4427 7.66V8.776H78.9027V11.236H81.6627V12.352H78.9027V16H77.5347V7.66H82.4427ZM84.4065 8.512C84.1585 8.512 83.9505 8.428 83.7825 8.26C83.6145 8.092 83.5305 7.884 83.5305 7.636C83.5305 7.388 83.6145 7.18 83.7825 7.012C83.9505 6.844 84.1585 6.76 84.4065 6.76C84.6465 6.76 84.8505 6.844 85.0185 7.012C85.1865 7.18 85.2705 7.388 85.2705 7.636C85.2705 7.884 85.1865 8.092 85.0185 8.26C84.8505 8.428 84.6465 8.512 84.4065 8.512ZM85.0785 9.388V16H83.7105V9.388H85.0785ZM88.2425 7.12V16H86.8745V7.12H88.2425ZM91.6346 10.504V14.164C91.6346 14.412 91.6906 14.592 91.8026 14.704C91.9226 14.808 92.1226 14.86 92.4026 14.86H93.2426V16H92.1626C91.5466 16 91.0746 15.856 90.7466 15.568C90.4186 15.28 90.2546 14.812 90.2546 14.164V10.504H89.4746V9.388H90.2546V7.744H91.6346V9.388H93.2426V10.504H91.6346ZM100.563 12.532C100.563 12.78 100.547 13.004 100.515 13.204H95.4635C95.5035 13.732 95.6995 14.156 96.0515 14.476C96.4035 14.796 96.8355 14.956 97.3475 14.956C98.0835 14.956 98.6035 14.648 98.9075 14.032H100.383C100.183 14.64 99.8195 15.14 99.2915 15.532C98.7715 15.916 98.1235 16.108 97.3475 16.108C96.7155 16.108 96.1475 15.968 95.6435 15.688C95.1475 15.4 94.7555 15 94.4675 14.488C94.1875 13.968 94.0475 13.368 94.0475 12.688C94.0475 12.008 94.1835 11.412 94.4555 10.9C94.7355 10.38 95.1235 9.98 95.6195 9.7C96.1235 9.42 96.6995 9.28 97.3475 9.28C97.9715 9.28 98.5275 9.416 99.0155 9.688C99.5035 9.96 99.8835 10.344 100.155 10.84C100.427 11.328 100.563 11.892 100.563 12.532ZM99.1355 12.1C99.1275 11.596 98.9475 11.192 98.5955 10.888C98.2435 10.584 97.8075 10.432 97.2875 10.432C96.8155 10.432 96.4115 10.584 96.0755 10.888C95.7395 11.184 95.5395 11.588 95.4755 12.1H99.1355ZM103.278 10.348C103.478 10.012 103.742 9.752 104.07 9.568C104.406 9.376 104.802 9.28 105.258 9.28V10.696H104.91C104.374 10.696 103.966 10.832 103.686 11.104C103.414 11.376 103.278 11.848 103.278 12.52V16H101.91V9.388H103.278V10.348ZM115.584 9.388L111.528 19.108H110.112L111.456 15.892L108.852 9.388H110.376L112.236 14.428L114.168 9.388H115.584ZM119.485 16.108C118.861 16.108 118.297 15.968 117.793 15.688C117.289 15.4 116.893 15 116.605 14.488C116.317 13.968 116.173 13.368 116.173 12.688C116.173 12.016 116.321 11.42 116.617 10.9C116.913 10.38 117.317 9.98 117.829 9.7C118.341 9.42 118.913 9.28 119.545 9.28C120.177 9.28 120.749 9.42 121.261 9.7C121.773 9.98 122.177 10.38 122.473 10.9C122.769 11.42 122.917 12.016 122.917 12.688C122.917 13.36 122.765 13.956 122.461 14.476C122.157 14.996 121.741 15.4 121.213 15.688C120.693 15.968 120.117 16.108 119.485 16.108ZM119.485 14.92C119.837 14.92 120.165 14.836 120.469 14.668C120.781 14.5 121.033 14.248 121.225 13.912C121.417 13.576 121.513 13.168 121.513 12.688C121.513 12.208 121.421 11.804 121.237 11.476C121.053 11.14 120.809 10.888 120.505 10.72C120.201 10.552 119.873 10.468 119.521 10.468C119.169 10.468 118.841 10.552 118.537 10.72C118.241 10.888 118.005 11.14 117.829 11.476C117.653 11.804 117.565 12.208 117.565 12.688C117.565 13.4 117.745 13.952 118.105 14.344C118.473 14.728 118.933 14.92 119.485 14.92ZM130.257 9.388V16H128.889V15.22C128.673 15.492 128.389 15.708 128.037 15.868C127.693 16.02 127.325 16.096 126.933 16.096C126.413 16.096 125.945 15.988 125.529 15.772C125.121 15.556 124.797 15.236 124.557 14.812C124.325 14.388 124.209 13.876 124.209 13.276V9.388H125.565V13.072C125.565 13.664 125.713 14.12 126.009 14.44C126.305 14.752 126.709 14.908 127.221 14.908C127.733 14.908 128.137 14.752 128.433 14.44C128.737 14.12 128.889 13.664 128.889 13.072V9.388H130.257ZM133.43 10.348C133.63 10.012 133.894 9.752 134.222 9.568C134.558 9.376 134.954 9.28 135.41 9.28V10.696H135.062C134.526 10.696 134.118 10.832 133.838 11.104C133.566 11.376 133.43 11.848 133.43 12.52V16H132.062V9.388H133.43V10.348ZM141.153 10.36C141.385 10.056 141.701 9.8 142.101 9.592C142.501 9.384 142.953 9.28 143.457 9.28C144.033 9.28 144.557 9.424 145.029 9.712C145.509 9.992 145.885 10.388 146.157 10.9C146.429 11.412 146.565 12 146.565 12.664C146.565 13.328 146.429 13.924 146.157 14.452C145.885 14.972 145.509 15.38 145.029 15.676C144.557 15.964 144.033 16.108 143.457 16.108C142.953 16.108 142.505 16.008 142.113 15.808C141.721 15.6 141.401 15.344 141.153 15.04V19.144H139.785V9.388H141.153V10.36ZM145.173 12.664C145.173 12.208 145.077 11.816 144.885 11.488C144.701 11.152 144.453 10.9 144.141 10.732C143.837 10.556 143.509 10.468 143.157 10.468C142.813 10.468 142.485 10.556 142.173 10.732C141.869 10.908 141.621 11.164 141.429 11.5C141.245 11.836 141.153 12.232 141.153 12.688C141.153 13.144 141.245 13.544 141.429 13.888C141.621 14.224 141.869 14.48 142.173 14.656C142.485 14.832 142.813 14.92 143.157 14.92C143.509 14.92 143.837 14.832 144.141 14.656C144.453 14.472 144.701 14.208 144.885 13.864C145.077 13.52 145.173 13.12 145.173 12.664ZM150.786 16.108C150.162 16.108 149.598 15.968 149.094 15.688C148.59 15.4 148.194 15 147.906 14.488C147.618 13.968 147.474 13.368 147.474 12.688C147.474 12.016 147.622 11.42 147.918 10.9C148.214 10.38 148.618 9.98 149.13 9.7C149.642 9.42 150.214 9.28 150.846 9.28C151.478 9.28 152.05 9.42 152.562 9.7C153.074 9.98 153.478 10.38 153.774 10.9C154.07 11.42 154.218 12.016 154.218 12.688C154.218 13.36 154.066 13.956 153.762 14.476C153.458 14.996 153.042 15.4 152.514 15.688C151.994 15.968 151.418 16.108 150.786 16.108ZM150.786 14.92C151.138 14.92 151.466 14.836 151.77 14.668C152.082 14.5 152.334 14.248 152.526 13.912C152.718 13.576 152.814 13.168 152.814 12.688C152.814 12.208 152.722 11.804 152.538 11.476C152.354 11.14 152.11 10.888 151.806 10.72C151.502 10.552 151.174 10.468 150.822 10.468C150.47 10.468 150.142 10.552 149.838 10.72C149.542 10.888 149.306 11.14 149.13 11.476C148.954 11.804 148.866 12.208 148.866 12.688C148.866 13.4 149.046 13.952 149.406 14.344C149.774 14.728 150.234 14.92 150.786 14.92ZM158.186 12.7L161.234 16H159.386L156.938 13.156V16H155.57V7.12H156.938V12.28L159.338 9.388H161.234L158.186 12.7ZM168.274 12.532C168.274 12.78 168.258 13.004 168.226 13.204H163.174C163.214 13.732 163.41 14.156 163.762 14.476C164.114 14.796 164.546 14.956 165.058 14.956C165.794 14.956 166.314 14.648 166.618 14.032H168.094C167.894 14.64 167.53 15.14 167.002 15.532C166.482 15.916 165.834 16.108 165.058 16.108C164.426 16.108 163.858 15.968 163.354 15.688C162.858 15.4 162.466 15 162.178 14.488C161.898 13.968 161.758 13.368 161.758 12.688C161.758 12.008 161.894 11.412 162.166 10.9C162.446 10.38 162.834 9.98 163.33 9.7C163.834 9.42 164.41 9.28 165.058 9.28C165.682 9.28 166.238 9.416 166.726 9.688C167.214 9.96 167.594 10.344 167.866 10.84C168.138 11.328 168.274 11.892 168.274 12.532ZM166.846 12.1C166.838 11.596 166.658 11.192 166.306 10.888C165.954 10.584 165.518 10.432 164.998 10.432C164.526 10.432 164.122 10.584 163.786 10.888C163.45 11.184 163.25 11.588 163.186 12.1H166.846ZM177.625 9.28C178.145 9.28 178.609 9.388 179.017 9.604C179.433 9.82 179.757 10.14 179.989 10.564C180.229 10.988 180.349 11.5 180.349 12.1V16H178.993V12.304C178.993 11.712 178.845 11.26 178.549 10.948C178.253 10.628 177.849 10.468 177.337 10.468C176.825 10.468 176.417 10.628 176.113 10.948C175.817 11.26 175.669 11.712 175.669 12.304V16H174.313V12.304C174.313 11.712 174.165 11.26 173.869 10.948C173.573 10.628 173.169 10.468 172.657 10.468C172.145 10.468 171.737 10.628 171.433 10.948C171.137 11.26 170.989 11.712 170.989 12.304V16H169.621V9.388H170.989V10.144C171.213 9.872 171.497 9.66 171.841 9.508C172.185 9.356 172.553 9.28 172.945 9.28C173.473 9.28 173.945 9.392 174.361 9.616C174.777 9.84 175.097 10.164 175.321 10.588C175.521 10.188 175.833 9.872 176.257 9.64C176.681 9.4 177.137 9.28 177.625 9.28ZM184.957 16.108C184.333 16.108 183.769 15.968 183.265 15.688C182.761 15.4 182.365 15 182.077 14.488C181.789 13.968 181.645 13.368 181.645 12.688C181.645 12.016 181.793 11.42 182.089 10.9C182.385 10.38 182.789 9.98 183.301 9.7C183.813 9.42 184.385 9.28 185.017 9.28C185.649 9.28 186.221 9.42 186.733 9.7C187.245 9.98 187.649 10.38 187.945 10.9C188.241 11.42 188.389 12.016 188.389 12.688C188.389 13.36 188.237 13.956 187.933 14.476C187.629 14.996 187.213 15.4 186.685 15.688C186.165 15.968 185.589 16.108 184.957 16.108ZM184.957 14.92C185.309 14.92 185.637 14.836 185.941 14.668C186.253 14.5 186.505 14.248 186.697 13.912C186.889 13.576 186.985 13.168 186.985 12.688C186.985 12.208 186.893 11.804 186.709 11.476C186.525 11.14 186.281 10.888 185.977 10.72C185.673 10.552 185.345 10.468 184.993 10.468C184.641 10.468 184.313 10.552 184.009 10.72C183.713 10.888 183.477 11.14 183.301 11.476C183.125 11.804 183.037 12.208 183.037 12.688C183.037 13.4 183.217 13.952 183.577 14.344C183.945 14.728 184.405 14.92 184.957 14.92ZM193.078 9.28C193.598 9.28 194.062 9.388 194.47 9.604C194.886 9.82 195.21 10.14 195.442 10.564C195.674 10.988 195.79 11.5 195.79 12.1V16H194.434V12.304C194.434 11.712 194.286 11.26 193.99 10.948C193.694 10.628 193.29 10.468 192.778 10.468C192.266 10.468 191.858 10.628 191.554 10.948C191.258 11.26 191.11 11.712 191.11 12.304V16H189.742V9.388H191.11V10.144C191.334 9.872 191.618 9.66 191.962 9.508C192.314 9.356 192.686 9.28 193.078 9.28Z" fill="#F8F8F8"/>
<path d="M45.1763 4.99926C46.8597 7.41921 49.968 11.9041 49.968 11.9041V17.5101C49.968 18.024 50.343 18.4445 50.8013 18.4445H52.468C52.9263 18.4445 53.3013 18.024 53.3013 17.5101V11.9041C53.3013 11.9041 56.4013 7.41921 58.0847 4.99926C58.5097 4.38259 58.118 3.49496 57.4263 3.49496H45.8347C45.143 3.49496 44.7513 4.38259 45.1763 4.99926Z" fill="#F8F8F8"/>
</svg>
